<?xml version="1.0" standalone="no"?>
<!DOCTYPE svg PUBLIC "-//W3C//DTD SVG 20010904//EN"
 "http://www.w3.org/TR/2001/REC-SVG-20010904/DTD/svg10.dtd">
<svg version="1.0" xmlns="http://www.w3.org/2000/svg"
 width="575.000000pt" height="575.000000pt" viewBox="0 0 575.000000 575.000000"
 preserveAspectRatio="xMidYMid meet">
<metadata>
Created by potrace 1.11, written by Peter Selinger 2001-2013
</metadata>
<g transform="translate(0.000000,575.000000) scale(0.100000,-0.100000)"
fill="#000000" stroke="none">
<path d="M2540 4493 c-35 -3 -199 -28 -255 -38 -70 -13 -221 -57 -312 -90
-567 -210 -1004 -640 -1178 -1160 -60 -179 -79 -297 -80 -500 0 -207 6 -272
41 -407 162 -642 689 -1153 1389 -1347 197 -55 328 -73 565 -77 229 -3 342 6
525 46 697 152 1266 632 1469 1241 66 198 80 289 80 524 0 180 -3 225 -23 315
-72 335 -224 620 -465 868 -332 342 -767 553 -1272 616 -97 13 -391 18 -484 9z"/>
</g>
</svg>
