<?xml version="1.0" standalone="no"?>
<!DOCTYPE svg PUBLIC "-//W3C//DTD SVG 20010904//EN"
 "http://www.w3.org/TR/2001/REC-SVG-20010904/DTD/svg10.dtd">
<svg version="1.0" xmlns="http://www.w3.org/2000/svg"
 width="575.000000pt" height="575.000000pt" viewBox="0 0 575.000000 575.000000"
 preserveAspectRatio="xMidYMid meet">
<metadata>
Created by potrace 1.11, written by Peter Selinger 2001-2013
</metadata>
<g transform="translate(0.000000,575.000000) scale(0.100000,-0.100000)"
fill="#000000" stroke="none">
<path d="M2450 4485 c-242 -34 -467 -102 -677 -204 -548 -268 -914 -719 -1035
-1271 -20 -92 -23 -133 -23 -325 0 -192 3 -233 23 -325 121 -552 487 -1002
1035 -1271 308 -150 613 -219 977 -219 364 0 669 69 977 219 548 269 914 719
1035 1271 20 92 23 133 23 325 0 192 -3 233 -23 325 -170 779 -845 1358 -1722
1476 -131 17 -461 17 -590 -1z m1200 -629 l0 -175 -57 -89 c-32 -50 -72 -114
-90 -144 l-32 -53 -1 273 0 274 -29 29 -29 29 -681 0 c-599 0 -681 2 -681 15
0 13 96 15 800 15 l800 0 0 -174z m-280 -298 l0 -342 -134 -241 c-74 -132
-174 -310 -223 -395 l-89 -155 -534 -2 -535 -2 -42 53 -43 53 0 687 0 686 800
0 800 0 0 -342z m280 -623 l0 -585 -90 0 -90 0 0 437 0 436 31 56 c64 114 140
241 145 241 2 0 4 -263 4 -585z m-280 -245 c0 -343 0 -350 -20 -350 -17 0 -20
7 -20 40 l0 40 -155 0 c-85 0 -155 2 -155 4 0 1 60 108 133 237 73 129 151
267 173 307 21 39 40 72 42 72 1 0 2 -157 2 -350z m790 -190 c62 -242 79 -446
46 -525 -23 -53 -62 -93 -113 -116 -37 -17 -46 -18 -82 -6 -21 8 -68 34 -103
59 -76 53 -152 98 -168 98 -6 0 3 -17 20 -38 30 -37 52 -112 33 -112 -5 0 -35
26 -67 59 l-58 58 58 102 58 101 43 0 c89 0 154 52 193 156 18 51 43 177 66
349 l7 50 19 -60 c10 -33 32 -112 48 -175z m-1284 -177 c-26 -66 -39 -145 -72
-423 -20 -173 -40 -319 -45 -324 -10 -11 -219 38 -302 70 -76 30 -121 58 -181
114 -59 55 -84 90 -173 250 -39 69 -80 143 -93 165 -12 22 -37 65 -56 96 -19
31 -34 59 -34 63 0 3 216 6 481 6 448 0 481 -1 475 -17z m175 6 c-92 -18 -82
-43 50 -117 85 -49 90 -53 54 -48 -22 3 -84 9 -137 12 -72 5 -98 11 -98 20 0
8 12 43 26 79 l26 65 62 -1 61 -1 -44 -9z m611 -191 c-10 -18 -30 -52 -42 -75
-13 -23 -28 -39 -33 -36 -5 3 -40 17 -76 30 l-66 24 79 -5 c86 -7 88 -4 19 34
-82 44 -69 57 60 59 l79 1 -20 -32z m-551 -49 c75 -29 165 -79 227 -125 28
-22 32 -31 32 -70 0 -24 -2 -44 -5 -44 -3 0 -29 19 -58 43 -28 23 -109 82
-179 130 -175 120 -177 127 -17 66z m-1339 -44 c13 -33 28 -60 34 -60 5 0 10
20 12 45 4 72 9 77 38 39 33 -45 90 -142 148 -254 26 -49 64 -110 85 -135 50
-60 142 -107 226 -116 22 -3 56 -6 75 -9 19 -2 73 -4 120 -5 98 -1 94 -7 -35
-45 -174 -52 -331 -79 -448 -78 -105 2 -187 28 -254 82 -69 56 -77 85 -38 146
60 96 89 185 66 199 -6 4 -19 0 -28 -9 -30 -30 -117 -48 -137 -28 -3 4 16 30
44 58 40 41 51 60 59 101 10 50 7 115 -6 138 -4 7 -2 8 5 1 6 -5 21 -37 34
-70z m1381 -165 c92 -68 163 -128 159 -132 -13 -13 -456 -198 -461 -192 -5 5
46 453 56 487 4 16 8 15 42 -10 21 -15 113 -84 204 -153z m415 90 c-5 -24 -22
-18 -58 23 l-33 38 47 -22 c30 -15 46 -29 44 -39z m82 -205 l0 -175 -90 0 -90
0 0 58 c0 53 3 61 35 92 27 26 38 31 47 22 7 -7 23 -12 36 -12 24 0 25 2 19
57 -5 46 -2 63 16 94 12 22 23 39 25 39 1 0 2 -79 2 -175z m-280 -196 l0 -110
-200 3 c-165 2 -202 6 -215 19 -14 14 4 24 197 107 117 50 214 91 216 92 1 0
2 -50 2 -111z m-452 -106 c-10 -2 -26 -2 -35 0 -10 3 -2 5 17 5 19 0 27 -2 18
-5z"/>
<path d="M1950 3530 l0 -50 620 0 620 0 0 50 0 50 -620 0 -620 0 0 -50z"/>
<path d="M1950 2970 l0 -50 620 0 620 0 0 50 0 50 -620 0 -620 0 0 -50z"/>
</g>
</svg>
